<svg width="24" height="24" viewBox="0 0 24 24" fill="none" xmlns="http://www.w3.org/2000/svg">
<path d="M4 7V16.3333H20V7H4ZM12 15C10.1593 15 8.66667 13.5073 8.66667 11.6667C8.66667 9.826 10.1593 8.33333 12 8.33333C13.8407 8.33333 15.3333 9.826 15.3333 11.6667C15.3333 13.5073 13.8407 15 12 15ZM12.1667 13.316V13.6667H11.8333V13.334C11.4887 13.328 11.1307 13.246 10.8333 13.092L10.9853 12.5447C11.304 12.668 11.728 12.7993 12.06 12.7247C12.4433 12.638 12.522 12.244 12.0987 12.054C11.788 11.9107 10.8387 11.786 10.8387 10.9733C10.8387 10.5187 11.1853 10.112 11.8333 10.0227V9.66667H12.1667V10.006C12.408 10.012 12.6793 10.054 12.9813 10.146L12.8607 10.6953C12.6047 10.606 12.3213 10.524 12.046 10.5407C11.55 10.57 11.5053 10.9993 11.852 11.1793C12.422 11.4473 13.1667 11.6467 13.1667 12.3607C13.1673 12.9333 12.7193 13.2387 12.1667 13.316Z" fill="white"/>
</svg>
